<svg width="28" height="28" viewBox="0 0 28 28" fill="none" xmlns="http://www.w3.org/2000/svg">
<g id="Outline/Brands/Facebook">
<path id="Icon" fill-rule="evenodd" clip-rule="evenodd" d="M12.6379 5.20212C13.6477 4.19231 15.0173 3.625 16.4454 3.625H19.2146C19.6394 3.625 19.9838 3.9694 19.9838 4.39423V8.08654C19.9838 8.51137 19.6394 8.85577 19.2146 8.85577H16.4454C16.4045 8.85577 16.3654 8.87198 16.3366 8.90083C16.3077 8.92968 16.2915 8.96881 16.2915 9.00962V11.0096H19.2146C19.4515 11.0096 19.6751 11.1187 19.8209 11.3055C19.9667 11.4922 20.0183 11.7356 19.9608 11.9654L19.0378 15.6577C18.9522 16.0002 18.6445 16.2404 18.2915 16.2404H16.2915V22.8558C16.2915 23.2806 15.9471 23.625 15.5223 23.625H11.83C11.4051 23.625 11.0607 23.2806 11.0607 22.8558V16.2404H9.06073C8.6359 16.2404 8.2915 15.896 8.2915 15.4712V11.7788C8.2915 11.354 8.6359 11.0096 9.06073 11.0096H11.0607V9.00962C11.0607 7.58153 11.628 6.21193 12.6379 5.20212ZM16.4454 5.16346C15.4253 5.16346 14.447 5.56868 13.7257 6.28997C13.0044 7.01127 12.5992 7.98955 12.5992 9.00962V11.7788C12.5992 12.2037 12.2548 12.5481 11.83 12.5481H9.82997V14.7019H11.83C12.2548 14.7019 12.5992 15.0463 12.5992 15.4712V22.0865H14.753V15.4712C14.753 15.0463 15.0974 14.7019 15.5223 14.7019H17.6909L18.2294 12.5481H15.5223C15.0974 12.5481 14.753 12.2037 14.753 11.7788V9.00962C14.753 8.56079 14.9313 8.13034 15.2487 7.81297C15.5661 7.4956 15.9965 7.31731 16.4454 7.31731H18.4454V5.16346H16.4454Z" fill="#FFFFFF"/>
</g>
</svg>
