<svg width="28" height="28" viewBox="0 0 28 28" fill="none" xmlns="http://www.w3.org/2000/svg">
<g id="Outline/Brands/Instagram">
<g id="Icon">
<path d="M18.2217 8.67941C18.2217 8.09545 18.6959 7.62206 19.2809 7.62206C19.8658 7.62206 20.34 8.09545 20.34 8.67941C20.34 9.26337 19.8658 9.73677 19.2809 9.73677C18.6959 9.73677 18.2217 9.26337 18.2217 8.67941Z" fill="#FFFFFF"/>
<path fill-rule="evenodd" clip-rule="evenodd" d="M13.9851 8.94375C11.2065 8.94375 8.95404 11.1924 8.95404 13.9662C8.95404 16.74 11.2065 18.9886 13.9851 18.9886C16.7636 18.9886 19.0161 16.74 19.0161 13.9662C19.0161 11.1924 16.7636 8.94375 13.9851 8.94375ZM10.5428 13.9662C10.5428 12.0683 12.0839 10.5298 13.9851 10.5298C15.8862 10.5298 17.4273 12.0683 17.4273 13.9662C17.4273 15.8641 15.8862 17.4026 13.9851 17.4026C12.0839 17.4026 10.5428 15.8641 10.5428 13.9662Z" fill="#FFFFFF"/>
<path fill-rule="evenodd" clip-rule="evenodd" d="M19.5544 4.27343C15.8827 3.86377 12.0874 3.86377 8.41575 4.27343C6.28465 4.51121 4.56422 6.18713 4.31367 8.32566C3.87461 12.0732 3.87461 15.8591 4.31367 19.6067C4.56422 21.7452 6.28465 23.4212 8.41575 23.6589C12.0874 24.0686 15.8827 24.0686 19.5544 23.6589C21.6855 23.4212 23.4059 21.7452 23.6565 19.6067C24.0955 15.8591 24.0955 12.0732 23.6565 8.32566C23.4059 6.18713 21.6855 4.51121 19.5544 4.27343ZM8.59221 5.84965C12.1466 5.45307 15.8236 5.45307 19.3779 5.84965C20.7867 6.00684 21.9153 7.11665 22.0785 8.5099C22.5032 12.1351 22.5032 15.7973 22.0785 19.4225C21.9153 20.8157 20.7867 21.9255 19.3779 22.0827C15.8236 22.4793 12.1466 22.4793 8.59221 22.0827C7.18341 21.9255 6.05489 20.8157 5.89166 19.4225C5.46694 15.7973 5.46694 12.1351 5.89166 8.5099C6.05489 7.11665 7.18341 6.00684 8.59221 5.84965Z" fill="#FFFFFF"/>
</g>
</g>
</svg>
