<svg width="28" height="28" viewBox="0 0 28 28" fill="none" xmlns="http://www.w3.org/2000/svg">
<g id="Outline/Brands/Pinterest">
<path id="Icon" fill-rule="evenodd" clip-rule="evenodd" d="M14.625 3.625C9.10215 3.625 4.625 8.10215 4.625 13.625C4.625 19.1478 9.10215 23.625 14.625 23.625C20.1478 23.625 24.625 19.1478 24.625 13.625C24.625 8.10215 20.1478 3.625 14.625 3.625ZM6.16346 13.625C6.16346 8.95182 9.95182 5.16346 14.625 5.16346C19.2982 5.16346 23.0865 8.95182 23.0865 13.625C23.0865 18.2982 19.2982 22.0865 14.625 22.0865C13.7457 22.0865 12.8978 21.9524 12.1005 21.7036C12.534 21.0229 12.8787 20.2897 13.1262 19.5215L13.656 17.4936C13.8749 17.806 14.1684 18.0587 14.5098 18.2289C14.8512 18.399 15.2296 18.4812 15.6109 18.468C18.2112 18.468 20.0381 16.1051 20.0381 13.1699C20.0381 10.3503 17.7362 8.24328 14.7826 8.24328C11.1044 8.24328 9.14964 10.7157 9.14964 13.4013C9.14964 14.6558 9.81342 16.2087 10.8791 16.708C11.0375 16.7811 11.141 16.708 11.1653 16.5923C11.1897 16.4767 11.3357 15.8927 11.4027 15.6245C11.4132 15.582 11.4133 15.5371 11.4027 15.4947C11.3921 15.4522 11.3712 15.413 11.3419 15.3805C10.9393 14.8133 10.7262 14.1334 10.733 13.4378C10.7309 12.9386 10.8301 12.4441 11.0246 11.9842C11.2192 11.5244 11.505 11.1089 11.8648 10.7627C12.2246 10.4166 12.6509 10.1471 13.1179 9.97046C13.5849 9.79385 14.0829 9.71384 14.5817 9.73526C15.0489 9.70794 15.5167 9.77829 15.9552 9.94184C16.3937 10.1054 16.7933 10.3585 17.1285 10.6852C17.4637 11.0118 17.7271 11.4046 17.902 11.8388C18.0769 12.2729 18.1594 12.7387 18.1442 13.2064C18.1442 15.5083 16.975 17.1099 15.4647 17.1099C15.2696 17.1249 15.0738 17.0927 14.8938 17.0159C14.7138 16.9392 14.5549 16.8202 14.4306 16.669C14.3064 16.5179 14.2203 16.339 14.1799 16.1476C14.1394 15.9561 14.1456 15.7578 14.198 15.5692C14.2846 15.21 14.3988 14.8401 14.5101 14.4796C14.7121 13.8255 14.9044 13.2025 14.9044 12.7314C14.9255 12.5784 14.9133 12.4226 14.8686 12.2748C14.8238 12.1269 14.7477 11.9905 14.6453 11.8748C14.5429 11.7592 14.4168 11.667 14.2754 11.6046C14.1341 11.5422 13.981 11.5111 13.8266 11.5135C12.974 11.5135 12.2859 12.4026 12.2859 13.584C12.2795 14.0015 12.3582 14.4159 12.5173 14.8019L11.5125 19.0648C11.3894 19.8703 11.3891 20.6898 11.5117 21.4954C10.8444 21.2312 10.2188 20.8846 9.64727 20.4682C8.64512 19.7362 7.80774 18.7889 7.20235 17.6858C6.96419 17.2519 6.76564 16.8006 6.60756 16.3374C6.31959 15.4859 6.16346 14.5737 6.16346 13.625Z" fill="#FFFFFF"/>
</g>
</svg>
