<svg width="28" height="28" viewBox="0 0 28 28" fill="none" xmlns="http://www.w3.org/2000/svg">
<g id="Outline/Brands/Instagram">
<path id="Vector" d="M23.1984 22.708L16.6817 12.4665L23.112 5.39287C23.2574 5.22894 23.3324 5.01429 23.3206 4.79546C23.3088 4.57663 23.2113 4.37126 23.0491 4.22388C22.8869 4.07649 22.6732 3.99897 22.4542 4.00812C22.2353 4.01726 22.0287 4.11234 21.8794 4.27274L15.7541 11.0102L11.5391 4.38621C11.4639 4.26791 11.3601 4.17049 11.2373 4.10297C11.1144 4.03546 10.9765 4.00004 10.8364 4H5.83952C5.6902 3.99993 5.54361 4.04 5.41509 4.11603C5.28657 4.19206 5.18086 4.30124 5.10902 4.43215C5.03719 4.56305 5.00186 4.71086 5.00676 4.8601C5.01165 5.00935 5.05658 5.15453 5.13684 5.28044L11.6536 15.5209L5.22325 22.5997C5.14815 22.6804 5.08982 22.7752 5.05162 22.8785C5.01343 22.9819 4.99613 23.0918 5.00073 23.202C5.00533 23.3121 5.03174 23.4202 5.07842 23.52C5.12511 23.6198 5.19115 23.7094 5.2727 23.7835C5.35426 23.8576 5.44972 23.9148 5.55355 23.9518C5.65737 23.9887 5.7675 24.0047 5.87755 23.9988C5.98759 23.9929 6.09537 23.9652 6.19463 23.9173C6.2939 23.8694 6.38267 23.8023 6.4558 23.7199L12.5811 16.9824L16.7962 23.6064C16.8719 23.7237 16.976 23.8201 17.0988 23.8867C17.2216 23.9533 17.3592 23.9879 17.4988 23.9874H22.4957C22.6449 23.9874 22.7913 23.9473 22.9196 23.8713C23.048 23.7953 23.1536 23.6862 23.2254 23.5555C23.2972 23.4248 23.3326 23.2771 23.3278 23.1281C23.3231 22.979 23.2784 22.8339 23.1984 22.708ZM17.9558 22.3218L7.35628 5.66562H10.3752L20.9789 22.3218H17.9558Z" fill="#FFFFFF"/>
</g>
</svg>
